# xmcd
#
# Track frame offsets:
#	150
#	22653
#	49843
#	66894
#	85004
#	117310
#	137050
#	202778
#	232691
#	269500
#	283570
#	302038
#	324556
#	333524
#
# Disc length: 4747 seconds
#
# Revision: 1
# Processed by: cddbd v1.5.2PL0 Copyright (c) Steve Scherf et al.
# Submitted via: audiograbber 1.83.01
#
DISCID=ba12890e
DTITLE=Peter Rühmkorf -  Lyrik und Jazz CD 3
DYEAR=2009
DGENRE=Jazz
TTITLE0=Impromptu
TTITLE1=Der getreue Don Juan
TTITLE2=Deutsche Zauberstrophen
TTITLE3=Auch gut, wenn man
TTITLE4=Schnellimbiss
TTITLE5=Fliederbusch
TTITLE6=Mit den Jahren
TTITLE7=Früher, als wir die großen Ströme
TTITLE8=Überraschendes Wiedersehen
TTITLE9=Kleine Reimfibel
TTITLE10=Fredmans Epistel Nr. 27
TTITLE11=Betrifft: Rundfrage Grundfrage
TTITLE12=Megalomanischer Tag
TTITLE13=Rückblickend
EXTD=YEAR: 2009
EXTT0=
EXTT1=
EXTT2=
EXTT3=
EXTT4=
EXTT5=
EXTT6=
EXTT7=
EXTT8=
EXTT9=
EXTT10=
EXTT11=
EXTT12=
EXTT13=
PLAYORDER=
